<svg width="25" height="24" viewBox="0 0 25 24" fill="none" xmlns="http://www.w3.org/2000/svg">
<g id="vuesax/bold/wallet">
<g id="wallet">
<path id="Vector" d="M21.95 13.64V14.64C21.95 14.91 21.74 15.13 21.46 15.14H20C19.47 15.14 18.99 14.75 18.95 14.23C18.92 13.92 19.04 13.63 19.24 13.43C19.42 13.24 19.67 13.14 19.94 13.14H21.45C21.74 13.15 21.95 13.37 21.95 13.64Z" fill="#386BF6"/>
<path id="Vector_2" d="M18.49 12.69C17.99 13.18 17.75 13.91 17.95 14.67C18.21 15.6 19.12 16.19 20.08 16.19H20.95C21.5 16.19 21.95 16.64 21.95 17.19V17.38C21.95 19.45 20.26 21.14 18.19 21.14H6.71001C4.64001 21.14 2.95001 19.45 2.95001 17.38V10.65C2.95001 9.42 3.54001 8.33 4.45001 7.65C5.08001 7.17 5.86001 6.89 6.71001 6.89H18.19C20.26 6.89 21.95 8.58 21.95 10.65V11.09C21.95 11.64 21.5 12.09 20.95 12.09H19.93C19.37 12.09 18.86 12.31 18.49 12.69Z" fill="#386BF6"/>
<path id="Vector_3" d="M16.7 4.82C16.97 5.09 16.74 5.51 16.36 5.51L8.68 5.5C8.24 5.5 8.01 4.96 8.33 4.65L9.95 3.02C11.32 1.66 13.54 1.66 14.91 3.02L16.66 4.79C16.67 4.8 16.69 4.81 16.7 4.82Z" fill="#386BF6"/>
</g>
</g>
</svg>
