<svg width="25" height="25" viewBox="0 0 25 25" fill="none" xmlns="http://www.w3.org/2000/svg">
<g id="vuesax/bold/graph">
<g id="graph">
<path id="Vector" d="M21.8367 7.45C21.1967 5.27999 19.3867 3.47 17.2167 2.83C15.5667 2.35 14.4267 2.39 13.6367 2.98C12.6867 3.69 12.5767 4.97 12.5767 5.88V8.37C12.5767 10.83 13.6967 12.08 15.8967 12.08H18.7667C19.6667 12.08 20.9567 11.97 21.6667 11.02C22.2767 10.24 22.3267 9.1 21.8367 7.45Z" fill="#386BF6"/>
<path id="Vector_2" d="M19.0767 13.86C18.8167 13.56 18.4367 13.39 18.0467 13.39H14.4667C12.7067 13.39 11.2767 11.96 11.2767 10.2V6.62C11.2767 6.23 11.1067 5.85 10.8067 5.59C10.5167 5.33 10.1167 5.21 9.73666 5.26C7.38666 5.56 5.22666 6.85 3.81666 8.79C2.39666 10.74 1.87666 13.12 2.32666 15.5C2.97666 18.94 5.72666 21.69 9.17666 22.34C9.72666 22.45 10.2767 22.5 10.8267 22.5C12.6367 22.5 14.3867 21.94 15.8767 20.85C17.8167 19.44 19.1067 17.28 19.4067 14.93C19.4567 14.54 19.3367 14.15 19.0767 13.86Z" fill="#386BF6"/>
</g>
</g>
</svg>
