<svg width="129" height="129" viewBox="0 0 129 129" fill="none" xmlns="http://www.w3.org/2000/svg">
<g id="chart">
<path id="Subtract" fill-rule="evenodd" clip-rule="evenodd" d="M64.5 129C100.122 129 129 100.122 129 64.5C129 28.8776 100.122 0 64.5 0C28.8776 0 0 28.8776 0 64.5C0 100.122 28.8776 129 64.5 129ZM64.5 116.906C93.4432 116.906 116.906 93.4432 116.906 64.5C116.906 35.5568 93.4432 12.0937 64.5 12.0937C35.5568 12.0937 12.0937 35.5568 12.0937 64.5C12.0937 93.4432 35.5568 116.906 64.5 116.906Z" fill="#D9D9D9"/>
<path id="Subtract_2" fill-rule="evenodd" clip-rule="evenodd" d="M70.5317 0.282603C67.2103 -0.029349 64.5 2.70439 64.5 6.04042C64.5 9.37645 67.2133 12.0449 70.5272 12.4285C73.0326 12.7185 75.509 13.1884 77.9376 13.8325C80.7233 14.5693 83.418 15.5298 86.0015 16.6935C88.643 17.8816 91.1929 19.2916 93.6225 20.9151C101.792 26.374 108.254 34.0129 112.285 42.9503C113.452 45.535 114.416 48.2315 115.156 51.0192C117.208 58.7305 117.481 66.8402 115.912 74.7265C115.695 75.8149 115.445 76.8939 115.161 77.9619C114.421 80.753 113.457 83.4527 112.289 86.0406C109.696 91.7922 106.073 97.0588 101.566 101.566C95.0197 108.112 86.8714 112.794 77.9619 115.161C76.8939 115.445 75.8149 115.695 74.7265 115.912C66.8402 117.481 58.7305 117.208 51.0191 115.156C48.2317 114.416 45.5353 113.452 42.9507 112.285C34.0131 108.254 26.3741 101.793 20.9151 93.6225C17.6888 88.7941 15.3052 83.4906 13.8324 77.9372C13.1883 75.5087 12.7184 73.0325 12.4285 70.5272C12.0449 67.2133 9.37645 64.5 6.04042 64.5C2.70439 64.5 -0.029349 67.2103 0.282603 70.5317C1.28075 81.1591 4.90502 91.4067 10.8702 100.334C17.9576 110.941 28.0311 119.208 39.8169 124.09C51.6027 128.972 64.5715 130.249 77.0833 127.761C89.5951 125.272 101.088 119.129 110.108 110.108C119.129 101.088 125.272 89.5951 127.761 77.0833C130.249 64.5715 128.972 51.6027 124.09 39.8169C119.208 28.0311 110.941 17.9576 100.334 10.8702C91.4067 4.90502 81.1591 1.28075 70.5317 0.282603Z" fill="#386BF6"/>
</g>
</svg>
