<svg width="25" height="25" viewBox="0 0 25 25" fill="none" xmlns="http://www.w3.org/2000/svg">
<g id="vuesax/linear/wallet">
<path id="Vector" d="M22.1667 12.5V17.5C22.1667 20.5 20.1667 22.5 17.1667 22.5H7.16667C4.16667 22.5 2.16667 20.5 2.16667 17.5V12.5C2.16667 9.78 3.80667 7.88 6.35667 7.56C6.61667 7.52 6.88667 7.5 7.16667 7.5H17.1667C17.4267 7.5 17.6767 7.50999 17.9167 7.54999C20.4967 7.84999 22.1667 9.76 22.1667 12.5Z" stroke="#9DB2CE" stroke-width="1.5" stroke-linecap="round" stroke-linejoin="round"/>
<path id="Vector_2" d="M17.9181 7.55C17.6781 7.51 17.4281 7.50001 17.1681 7.50001H7.16808C6.88808 7.50001 6.61808 7.52001 6.35808 7.56001C6.49808 7.28001 6.69808 7.02001 6.93808 6.78001L10.1881 3.52C11.5581 2.16 13.7781 2.16 15.1481 3.52L16.8981 5.29002C17.5381 5.92002 17.8781 6.72 17.9181 7.55Z" stroke="#9DB2CE" stroke-width="1.5" stroke-linecap="round" stroke-linejoin="round"/>
<path id="Vector_3" d="M22.1667 13H19.1667C18.0667 13 17.1667 13.9 17.1667 15C17.1667 16.1 18.0667 17 19.1667 17H22.1667" stroke="#9DB2CE" stroke-width="1.5" stroke-linecap="round" stroke-linejoin="round"/>
</g>
</svg>
